<svg id="Layer_1" data-name="Layer 1" xmlns="http://www.w3.org/2000/svg" viewBox="0 0 600 600"><defs><style>.cls-1{fill:#7579e7;}</style></defs><title>play</title><path class="cls-1" d="M300,40A260.07,260.07,0,0,1,401.19,539.58,260.07,260.07,0,0,1,198.81,60.42,258.27,258.27,0,0,1,300,40m0-40C134.31,0,0,134.31,0,300S134.31,600,300,600,600,465.69,600,300,465.69,0,300,0Z"/><path class="cls-1" d="M195.88,171.87V420.63a27.19,27.19,0,0,0,40.78,23.55L452.09,319.8a27.19,27.19,0,0,0,0-47.1L236.66,148.32A27.19,27.19,0,0,0,195.88,171.87Z"/></svg>